<?xml version="1.0" standalone="no"?>
<!DOCTYPE svg PUBLIC "-//W3C//DTD SVG 20010904//EN"
 "http://www.w3.org/TR/2001/REC-SVG-20010904/DTD/svg10.dtd">
<svg version="1.0" xmlns="http://www.w3.org/2000/svg"
 width="1000.000000pt" height="1000.000000pt" viewBox="0 0 1000.000000 1000.000000"
 preserveAspectRatio="xMidYMid meet">
<metadata>
Created by potrace 1.11, written by Peter Selinger 2001-2013
</metadata>
<g transform="translate(0.000000,1000.000000) scale(0.100000,-0.100000)"
fill="#000000" stroke="none">
<path d="M4142 8890 c-45 -28 -87 -50 -92 -50 -6 0 -10 -4 -10 -10 0 -5 -4
-10 -10 -10 -5 0 -44 -20 -86 -45 -41 -25 -77 -45 -79 -45 -2 0 -40 -22 -85
-50 -45 -27 -83 -50 -86 -50 -3 0 -121 -69 -154 -90 -8 -6 -22 -13 -30 -17 -8
-4 -53 -29 -100 -56 -84 -49 -387 -224 -445 -257 -16 -10 -78 -45 -137 -79
l-107 -62 -1 -3074 0 -3074 128 -73 c70 -40 136 -78 147 -85 11 -7 27 -15 35
-19 8 -5 38 -23 67 -41 29 -18 54 -33 57 -33 2 0 77 -43 167 -95 89 -52 163
-95 165 -95 1 0 38 -21 81 -46 43 -26 96 -57 118 -69 22 -13 108 -62 190 -110
83 -48 163 -95 180 -103 16 -9 65 -37 107 -64 43 -26 78 -42 79 -35 0 7 1 402
1 880 1 477 2 867 4 867 4 0 81 -43 146 -81 27 -16 50 -29 52 -29 2 0 44 -25
94 -55 50 -30 95 -55 98 -55 4 0 15 -6 23 -14 15 -12 108 -66 158 -90 13 -6
23 -14 23 -18 0 -5 5 -8 10 -8 6 0 46 -21 90 -48 44 -26 93 -54 108 -62 15 -8
58 -33 95 -55 38 -22 85 -49 105 -60 21 -11 61 -35 90 -52 29 -18 54 -33 56
-33 2 0 79 -44 172 -98 93 -54 189 -110 214 -124 25 -14 128 -74 230 -133 102
-59 203 -117 225 -130 22 -12 65 -37 95 -55 30 -18 73 -43 95 -55 22 -12 69
-39 105 -60 36 -20 85 -49 110 -63 25 -14 89 -52 143 -84 55 -32 101 -58 103
-58 3 0 30 -16 60 -35 30 -19 57 -35 59 -35 3 0 22 -11 43 -23 20 -13 57 -35
82 -49 110 -62 126 -71 138 -80 9 -8 12 167 12 871 l0 881 -56 32 c-31 18 -72
42 -92 54 -21 11 -228 131 -462 266 -234 135 -441 255 -460 266 -19 11 -62 35
-95 54 -33 19 -121 70 -195 113 -74 42 -138 80 -143 84 -4 4 13 18 39 32 25
13 53 29 62 34 24 14 169 98 212 123 59 33 351 202 420 242 76 45 558 323 610
353 19 10 63 36 98 55 l62 36 0 1317 c0 1041 -3 1319 -12 1326 -7 6 -38 24
-68 40 -54 30 -601 344 -630 363 -17 10 -108 64 -155 90 -118 67 -523 301
-583 336 -40 24 -74 44 -75 44 -1 0 -2 -594 -1 -1319 l1 -1319 -21 -11 c-12
-6 -46 -25 -76 -43 -31 -18 -105 -61 -165 -96 -61 -35 -126 -72 -145 -83 -19
-12 -114 -66 -210 -122 -96 -55 -251 -145 -344 -199 -92 -54 -169 -98 -171
-98 -2 0 -49 -27 -104 -60 -56 -33 -104 -60 -108 -60 -3 0 -14 -6 -22 -14 -9
-7 -46 -30 -82 -50 l-66 -36 1 2190 c1 1454 -2 2190 -9 2190 -5 -1 -47 -23
-93 -50z"/>
</g>
</svg>
